# xmcd CD database file
#
# Track frame offsets:
#	150
#	12810
#	29868
#	47169
#	62511
#	83442
#	100422
#	115423
#	129121
#	146352
#	162072
#	178098
#
# Disc length: 2599 seconds
#
# Revision: 3
# Processed by: cddbd v1.5.2PL0 Copyright (c) Steve Scherf et al.
# Submitted via: CDex 2.17
#
DISCID=950a250c
DTITLE=Alan Jackson - Freight Train
DYEAR=2010
DGENRE=Country
TTITLE0=Hard Hat And A Hammer
TTITLE1=Every Now And Then
TTITLE2=After 17
TTITLE3=It's Just That Way
TTITLE4=Freight Train
TTITLE5=Taillights Blue
TTITLE6=Could Get Used To This Lovin' 
TTITLE7=Till The End (with Lee Ann Woma
TTITLE8=That's Where I Belong
TTITLE9=Big Green Eyes
TTITLE10=True Love Is A Golden Ring
TTITLE11=The Best Keeps Getting Better
EXTD=YEAR: 2010
EXTT0=
EXTT1=
EXTT2=
EXTT3=
EXTT4=
EXTT5=
EXTT6=
EXTT7=
EXTT8=
EXTT9=
EXTT10=
EXTT11=
PLAYORDER=
